<?xml version="1.0" encoding="UTF-8"?>
<svg enable-background="new 0 0 612.302 193.34" version="1.0" viewBox="0 0 128 128" xml:space="preserve"
    xmlns="http://www.w3.org/2000/svg" xmlns:cc="http://creativecommons.org/ns#"
    xmlns:dc="http://purl.org/dc/elements/1.1/" xmlns:rdf="http://www.w3.org/1999/02/22-rdf-syntax-ns#"
    xmlns:xlink="http://www.w3.org/1999/xlink">
    <metadata>
        <rdf:RDF>
            <cc:Work rdf:about="">
                <dc:format>image/svg+xml</dc:format>
                <dc:type rdf:resource="http://purl.org/dc/dcmitype/StillImage" />
                <dc:title />
            </cc:Work>
        </rdf:RDF>
    </metadata>
    <defs>
        <rect id="b" x="32.075" y="32.622" width="128.18" height="128.18" />
        <path id="a"
            d="m96.157 32.621c-6.656-3e-3 -13.34 2.536-18.4 7.597l-38.087 38.085c-4.984 4.983-7.527 11.542-7.595 18.098v0.569c0.068 6.564 2.597 13.144 7.597 18.141l38.084 38.087c5.06 5.063 11.746 7.603 18.402 7.6h7e-3c6.653 0 13.341-2.535 18.405-7.6l38.084-38.087c5.068-5.065 7.599-11.756 7.598-18.412 1e-3 -6.651-2.533-13.335-7.592-18.395l-38.09-38.087c-5.062-5.066-11.749-7.597-18.401-7.597h-0.012z" />
        <rect id="d" x="32.082" y="32.621" width="124.89" height="87.036" />
        <rect id="c" x="32.082" y="32.621" width="124.89" height="87.036" />
        <path id="k"
            d="m80 42.457-38.088 38.086c-8.89 8.89-8.89 23.442 0 32.337l38.088 38.085c8.892 8.894 23.45 8.895 32.342 0l38.086-38.085c8.897-8.896 8.894-23.447 1e-3 -32.337l-38.088-38.086c-4.447-4.45-10.309-6.672-16.169-6.672-5.862 0-11.726 2.224-16.172 6.672" />
        <rect id="f" x="32.082" y="32.622" width="128.18" height="128.18" />
        <rect id="e" x="32.082" y="32.622" width="128.18" height="128.18" />
        <clipPath id="j">
            <use width="100%" height="100%" overflow="visible" xlink:href="#k" />
        </clipPath>
        <clipPath id="o">
            <use width="100%" height="100%" overflow="visible" xlink:href="#f" />
        </clipPath>
        <clipPath id="n">
            <use width="100%" height="100%" overflow="visible" xlink:href="#e" />
        </clipPath>
        <mask id="i" x="-31.977" y="-31.433" width="256.283" height="256.283" maskUnits="userSpaceOnUse">
            <g filter="url(#p)">
                <rect x="32.071" y="32.618" width="128.18" height="128.18" />
                <g enable-background="new    ">
                    <path
                        d="m74.216 116.23c10.716-7.749-7.75-15.5-12.309-17.778-4.558-2.279 0-6.838 4.787-8.89 4.789-2.051 3.177 13.009 8.89 7.294 5.471-5.47-9.345-11.852 3.305-19.491 12.653-7.635-5.584-5.582-5.584-12.65 0-7.067 7.979-7.977 7.979-13.449 0-3.58-6.162-4.171-10.424-4.154l-31.189 31.19c-0.694 0.693-1.335 1.418-1.933 2.168 0.148 5.851 7.16 6.814 11.175 6.814 5.016 0 7.751 7.751 2.737 12.765-5.014 5.016-5.387 13.595-2.114 16.866 2.203 2.206 1.443 6.312 0.708 8.771l5.916 5.912c1.621-5.203 8.685-8.588 18.056-15.368"
                        fill="#fff" />
                    <path
                        d="m93.543 41.044c8.619-1.109 0.641 5.976 4.737 7.768 3.704 1.618 13.599-3.339 14.686-10.062-4.831-4.083-10.832-6.132-16.809-6.13-2.662 0-5.327 0.412-7.891 1.224-0.473 3.449-0.092 7.893 5.277 7.2"
                        fill="#fff" />
                    <path
                        d="m114.6 89.498c-1.434-5.905-15.203-8.056-21.801-3.249-9.726 7.087-11.281 20.726-3.728 21.498 7.554 0.773 14.438 8.093 10.643 15.337-3.793 7.244 4.584 24.899 13.775 12.095 9.192-12.803 4.615-15.301 5.34-22.352 0.72-7.048 9.363-15.99 7.246-18.594-2.122-2.604-10.352-0.11-11.475-4.735"
                        fill="#fff" />
                    <path
                        d="m83.665 157.61c3.879 2.117 8.191 3.182 12.494 3.182h0.012c6.651 0 13.338-2.534 18.402-7.597l3.215-3.213c-5.481-1.025-24.537 4.611-34.123 7.628"
                        fill="#fff" />
                    <path
                        d="m138.32 107.36c-10.275 3.558-17.391 15.021-11.461 16.601 5.588 1.488 11.523-2.986 15.498 1.456l10.302-10.302c-1.985-4.05-5.178-10.925-14.339-7.755"
                        fill="#fff" />
                    <path
                        d="m105.11 65.492c2.338-0.313 0.499-2.935-0.828-3.516-1.327-0.582-5.552-0.283-3.988 1.63 1.182 1.446 2.481 2.201 4.816 1.886"
                        fill="#fff" />
                    <path
                        d="m154.77 96.18c-0.018-1.368-5.071-2.765-6.405-2.646-1.329 0.125-1.774 2.366 1.97 3.283 2.824 0.69 4.452 0.73 4.435-0.637"
                        fill="#fff" />
                    <path
                        d="m110.59 54.962c-0.564 4.5 3.939 6.19 1.688 8.44s-15.5 7.035-12.382 8.44c8.325 3.748-5.78 3.222 0 9.003 2.871 2.87 11.933-2.198 10.974-5.628-0.27-0.97 2.503-4.625 4.721-2.698 1.917 1.666 7.844 3.504 7.844 13.321 0 5.226 4.501 10.323 9.103 9.075 3.82-1.037 4.46-5.837 2.088-7.598-3.03-2.249 5.093-4.964 13.362 3.959 3.815 4.115 10.121-0.905 11.415-1.175v-1e-3c-1.125-4.326-3.373-8.424-6.745-11.798l-31.506-31.502c-5.802 0.603-10.332 6.321-10.562 8.162"
                        fill="#fff" />
                </g>
            </g>
        </mask>
        <filter id="p" x="-31.977" y="-31.433" width="256.28" height="256.28" filterUnits="userSpaceOnUse">
            <feColorMatrix values="1 0 0 0 0  0 1 0 0 0  0 0 1 0 0  0 0 0 1 0" />
        </filter>
        <clipPath id="h">
            <use width="100%" height="100%" overflow="visible" xlink:href="#b" />
        </clipPath>
        <clipPath id="g">
            <use width="100%" height="100%" overflow="visible" xlink:href="#a" />
        </clipPath>
        <clipPath id="m">
            <use width="100%" height="100%" overflow="visible" xlink:href="#d" />
        </clipPath>
        <clipPath id="l">
            <use width="100%" height="100%" overflow="visible" xlink:href="#c" />
        </clipPath>
    </defs>
    <g transform="matrix(.99856 0 0 .99856 -32.032 -32.571)" fill="#111">
        <path
            d="m152.67 78.305-38.086-38.087c-5.069-5.066-11.759-7.597-18.418-7.597-6.651 0-13.338 2.536-18.396 7.597l-38.089 38.087c-5.058 5.053-7.597 11.73-7.595 18.381-2e-3 6.658 2.526 13.357 7.598 18.429l38.085 38.086c5.058 5.06 11.745 7.598 18.401 7.597h0.012c6.651 0 13.336-2.535 18.401-7.597l38.084-38.086c5.065-5.066 7.599-11.76 7.596-18.414 4e-3 -6.652-2.535-13.338-7.593-18.396"
            fill="#111" />
    </g>
    <polygon transform="matrix(.99856 0 0 .99856 -32.034 -32.572)"
        points="203.95 140.92 52.304 205.29 -11.605 54.728 140.04 -9.643" clip-path="url(#j)" fill="#222" />
    <g transform="matrix(.99856 0 0 .99856 -32.032 -32.57)" opacity=".25">
        <g>
            <clipPath>
                <use width="100%" height="100%" overflow="visible" xlink:href="#f" />
            </clipPath>
            <g clip-path="url(#o)">
                <clipPath>
                    <use width="100%" height="100%" overflow="visible" xlink:href="#e" />
                </clipPath>
                <path
                    d="m96.166 160.8c-6.657 4e-3 -13.344-2.536-18.401-7.595l-38.084-38.087c-5.075-5.07-7.602-11.767-7.599-18.429-3e-3 -6.651 2.538-13.328 7.595-18.378l38.088-38.086c5.057-5.062 11.744-7.6 18.399-7.598 6.654-3e-3 13.349 2.531 18.416 7.598l38.085 38.086c5.06 5.058 7.6 11.743 7.594 18.396 5e-3 6.654-2.533 13.347-7.594 18.411l-38.085 38.087c-5.065 5.066-11.755 7.598-18.408 7.595zm-52.018-78.02c-3.826 3.827-5.741 8.853-5.743 13.909 2e-3 5.081 1.912 10.125 5.745 13.958l38.086 38.085c3.828 3.829 8.863 5.741 13.929 5.744 5.07-3e-3 10.106-1.912 13.941-5.744l38.084-38.085c3.832-3.833 5.741-8.873 5.745-13.941-3e-3 -5.067-1.914-10.098-5.742-13.927l-38.087-38.084c-3.835-3.834-8.873-5.743-13.943-5.746-5.067 1e-3 -10.1 1.917-13.928 5.746z"
                    clip-path="url(#n)" />
            </g>
        </g>
    </g>
    <g transform="matrix(.99856 0 0 .99856 -32.025 -32.571)" fill="#ccc" fill-opacity=".75294" mask="url(#i)">
        <g fill="#ccc" fill-opacity=".75294">
            <clipPath>
                <use width="100%" height="100%" overflow="visible" xlink:href="#b" />
            </clipPath>
            <g clip-path="url(#h)" fill="#ccc" fill-opacity=".75294">
                <clipPath>
                    <use width="100%" height="100%" overflow="visible" xlink:href="#a" />
                </clipPath>
                <polygon points="93.928 -31.433 224.31 94.472 98.401 224.85 -31.977 98.946" clip-path="url(#g)"
                    fill="#ccc" fill-opacity=".75294" />
            </g>
        </g>
    </g>
    <g transform="matrix(.99856 0 0 .99856 -32.031 -32.576)" fill="#040404" opacity=".15">
        <g fill="#040404">
            <clipPath>
                <use width="100%" height="100%" overflow="visible" xlink:href="#d" />
            </clipPath>
            <g clip-path="url(#m)" fill="#040404">
                <clipPath>
                    <use width="100%" height="100%" overflow="visible" xlink:href="#c" />
                </clipPath>
                <path
                    d="m156.97 84.014c-1.14-2.049-2.57-3.976-4.304-5.71l-38.086-38.084c-5.069-5.069-11.759-7.599-18.417-7.597-6.652-1e-3 -13.339 2.534-18.397 7.597l-38.089 38.084c-5.057 5.055-7.597 11.73-7.595 18.381-2e-3 6.657 2.526 13.358 7.598 18.428l4.54 4.544c8.055-12.525 46.917-65.363 112.75-35.643"
                    clip-path="url(#l)" fill="#040404" />
            </g>
        </g>
    </g>
</svg>
