<?xml version="1.0" encoding="UTF-8"?>
<svg enable-background="new 0 0 612.302 193.34" version="1.0" viewBox="0 0 128 128" xml:space="preserve"
    xmlns="http://www.w3.org/2000/svg" xmlns:cc="http://creativecommons.org/ns#"
    xmlns:dc="http://purl.org/dc/elements/1.1/" xmlns:rdf="http://www.w3.org/1999/02/22-rdf-syntax-ns#"
    xmlns:xlink="http://www.w3.org/1999/xlink">
    <defs>
        <rect id="a" x="32.082" y="32.621" width="124.89" height="87.036" />
        <rect id="d" x="32.082" y="32.621" width="124.89" height="87.036" />
        <clipPath id="c">
            <use width="100%" height="100%" overflow="visible" xlink:href="#a" />
        </clipPath>
        <linearGradient id="b" x1="-19.644" x2="55.331" y1="61.874" y2="-11.44"
            gradientTransform="translate(46.358 39.166)" gradientUnits="userSpaceOnUse">
            <stop stop-color="#00afdd" offset="0" />
            <stop stop-color="#d9ff99" offset="1" />
        </linearGradient>
    </defs>
    <metadata>
        <rdf:RDF>
            <cc:Work rdf:about="">
                <dc:format>image/svg+xml</dc:format>
                <dc:type rdf:resource="http://purl.org/dc/dcmitype/StillImage" />
                <dc:title />
            </cc:Work>
        </rdf:RDF>
    </metadata>
    <path
        d="m120.41 45.622-38.031-38.032c-5.0617-5.0587-11.742-7.5861-18.391-7.5861-6.6414 0-13.319 2.5324-18.37 7.5861l-38.034 38.032c-5.0507 5.0457-7.5861 11.713-7.5841 18.355-2e-3 6.6484 2.5224 13.338 7.5871 18.402l38.03 38.031c5.0507 5.0527 11.728 7.5871 18.374 7.5861h0.01198c6.6414 0 13.317-2.5314 18.374-7.5861l38.029-38.031c5.0577-5.0587 7.5881-11.743 7.5851-18.387 0.00399-6.6424-2.5314-13.319-7.5821-18.37"
        fill="url(#b)" stroke-width=".99856" />
    <g transform="matrix(.99856 0 0 .99856 -243.96 -125.98)" opacity=".15">
        <clipPath>
            <use width="100%" height="100%" overflow="visible" xlink:href="#a" />
        </clipPath>
        <g clip-path="url(#c)">
            <clipPath>
                <use width="100%" height="100%" overflow="visible" xlink:href="#d" />
            </clipPath>
        </g>
    </g>
</svg>
